<?xml version="1.0" encoding="UTF-8"?>
<svg id="_01_Check_" data-name="01 Check
" xmlns="http://www.w3.org/2000/svg" viewBox="0 0 512 512">
  <defs>
    <style>
      .cls-1 {
        fill: #4e5c6f;
      }

      .cls-1, .cls-2, .cls-3 {
        stroke-width: 0px;
      }

      .cls-2 {
        fill: #b8f09c;
      }

      .cls-3 {
        fill: #f0f0f0;
      }
    </style>
  </defs>
  <g>
    <circle class="cls-2" cx="256" cy="256" r="248"/>
    <circle class="cls-3" cx="256" cy="256" r="200"/>
    <path class="cls-2" d="M192,360c-1.16,0-2.33-.08-3.5-.26-7.11-1.05-13.38-5.23-17.08-11.4l-48-80c-6.82-11.37-3.13-26.11,8.23-32.93,11.37-6.82,26.11-3.13,32.93,8.23l32.94,54.9,154.34-140.31c9.81-8.92,24.99-8.19,33.9,1.61,8.92,9.81,8.19,24.99-1.61,33.9l-176,160c-4.45,4.04-10.22,6.24-16.14,6.24Z"/>
  </g>
  <g>
    <path class="cls-1" d="M437.02,74.98C388.67,26.63,324.38,0,256,0S123.33,26.63,74.98,74.98,0,187.62,0,256s26.63,132.67,74.98,181.02,112.64,74.98,181.02,74.98,132.67-26.63,181.02-74.98,74.98-112.64,74.98-181.02-26.63-132.67-74.98-181.02ZM256,496c-132.34,0-240-107.66-240-240S123.66,16,256,16s240,107.66,240,240-107.66,240-240,240Z"/>
    <path class="cls-1" d="M391.68,154.48c-11.87-13.06-32.15-14.02-45.2-2.15l-147.12,133.74-27.92-46.53c-9.08-15.13-28.77-20.05-43.9-10.98-15.13,9.08-20.05,28.77-10.98,43.9l48,80c4.95,8.25,13.25,13.79,22.78,15.19,1.54.23,3.11.34,4.66.34,7.98,0,15.62-2.96,21.52-8.32l176-160c6.33-5.75,10.03-13.62,10.44-22.16.41-8.54-2.54-16.72-8.29-23.05ZM378.76,187.84l-176,160c-2.95,2.68-6.77,4.16-10.76,4.16-.78,0-1.56-.06-2.33-.17-4.76-.7-8.91-3.47-11.39-7.6l-48-80c-4.54-7.57-2.08-17.41,5.49-21.95,2.57-1.54,5.41-2.28,8.21-2.28,5.44,0,10.75,2.77,13.75,7.76l32.94,54.9c1.23,2.06,3.32,3.45,5.69,3.8,2.37.35,4.77-.38,6.55-2l154.34-140.31c6.53-5.93,16.67-5.45,22.6,1.08,2.88,3.16,4.35,7.25,4.14,11.52-.2,4.27-2.06,8.2-5.22,11.08Z"/>
    <path class="cls-1" d="M256,48c-114.69,0-208,93.31-208,208s93.31,208,208,208,208-93.31,208-208S370.69,48,256,48ZM256,448c-105.87,0-192-86.13-192-192s86.13-192,192-192,192,86.13,192,192-86.13,192-192,192Z"/>
  </g>
</svg>